<svg xmlns="http://www.w3.org/2000/svg" xmlns:xlink="http://www.w3.org/1999/xlink" width="48" zoomAndPan="magnify" viewBox="0 0 36 36.000001" height="48" preserveAspectRatio="xMidYMid meet" version="1.2"><defs><clipPath id="338d0d874e"><path d="M 0.488281 0 L 35.511719 0 L 35.511719 35.027344 L 0.488281 35.027344 Z M 0.488281 0 "/></clipPath><clipPath id="b715dddd80"><path d="M 18 0 C 8.328125 0 0.488281 7.839844 0.488281 17.511719 C 0.488281 27.1875 8.328125 35.027344 18 35.027344 C 27.671875 35.027344 35.511719 27.1875 35.511719 17.511719 C 35.511719 7.839844 27.671875 0 18 0 Z M 18 0 "/></clipPath><clipPath id="13784b8dba"><path d="M 11.203125 7.28125 L 29.101562 7.28125 L 29.101562 27.769531 L 11.203125 27.769531 Z M 11.203125 7.28125 "/></clipPath><clipPath id="8238964d1a"><path d="M 29.101562 17.507812 L 11.203125 27.738281 L 11.203125 7.28125 Z M 29.101562 17.507812 "/></clipPath><clipPath id="10f1bd830e"><path d="M 18 5.253906 L 24.566406 5.253906 L 24.566406 30.066406 L 18 30.066406 Z M 18 5.253906 "/></clipPath></defs><g id="4e15a306b2"><g clip-rule="nonzero" clip-path="url(#338d0d874e)"><g clip-rule="nonzero" clip-path="url(#b715dddd80)"><path style=" stroke:none;fill-rule:nonzero;fill:#191919;fill-opacity:1;" d="M 0.488281 0 L 35.511719 0 L 35.511719 35.027344 L 0.488281 35.027344 Z M 0.488281 0 "/></g></g><g clip-rule="nonzero" clip-path="url(#13784b8dba)"><g clip-rule="nonzero" clip-path="url(#8238964d1a)"><path style=" stroke:none;fill-rule:nonzero;fill:#ff2f2f;fill-opacity:1;" d="M 29.101562 7.28125 L 29.101562 27.769531 L 11.203125 27.769531 L 11.203125 7.28125 Z M 29.101562 7.28125 "/></g></g><g clip-rule="nonzero" clip-path="url(#10f1bd830e)"><path style=" stroke:none;fill-rule:nonzero;fill:#3a3a3a;fill-opacity:1;" d="M 22.195312 16.042969 C 22.195312 16.023438 22.195312 16.003906 22.207031 15.984375 C 22.382812 15.304688 22.660156 14.667969 23.03125 14.082031 C 23.101562 13.960938 23.171875 13.839844 23.25 13.710938 C 23.46875 13.363281 24.316406 12 24.382812 11.324219 C 24.546875 9.742188 24.246094 6.789062 24.148438 5.6875 L 24.148438 5.636719 C 24.148438 5.53125 24.113281 5.441406 24.042969 5.367188 C 23.96875 5.292969 23.882812 5.253906 23.78125 5.253906 L 23.5625 5.253906 L 23.515625 5.269531 L 23.496094 5.285156 C 23.34375 5.347656 23.265625 5.464844 23.265625 5.636719 L 23.265625 11.347656 C 23.257812 11.445312 23.21875 11.53125 23.148438 11.597656 C 23.074219 11.667969 22.992188 11.699219 22.894531 11.699219 C 22.796875 11.699219 22.714844 11.667969 22.644531 11.597656 C 22.574219 11.53125 22.535156 11.445312 22.527344 11.347656 L 22.527344 5.636719 C 22.527344 5.535156 22.492188 5.445312 22.421875 5.371094 C 22.351562 5.296875 22.265625 5.257812 22.164062 5.253906 L 22.023438 5.253906 C 21.921875 5.253906 21.835938 5.289062 21.761719 5.367188 C 21.6875 5.441406 21.652344 5.53125 21.652344 5.636719 L 21.652344 11.347656 C 21.652344 11.453125 21.617188 11.542969 21.542969 11.617188 C 21.472656 11.691406 21.386719 11.730469 21.285156 11.730469 C 21.183594 11.730469 21.09375 11.691406 21.023438 11.617188 C 20.953125 11.542969 20.914062 11.453125 20.914062 11.347656 L 20.914062 5.636719 C 20.914062 5.53125 20.878906 5.441406 20.804688 5.367188 C 20.734375 5.289062 20.644531 5.253906 20.542969 5.253906 L 20.402344 5.253906 C 20.300781 5.253906 20.214844 5.292969 20.140625 5.367188 C 20.070312 5.441406 20.035156 5.53125 20.035156 5.636719 L 20.035156 11.347656 C 20.027344 11.445312 19.988281 11.53125 19.917969 11.597656 C 19.847656 11.667969 19.761719 11.699219 19.664062 11.699219 C 19.570312 11.699219 19.484375 11.667969 19.414062 11.597656 C 19.34375 11.53125 19.304688 11.445312 19.296875 11.347656 L 19.296875 5.636719 C 19.296875 5.46875 19.222656 5.351562 19.070312 5.285156 L 19.054688 5.285156 L 19.003906 5.253906 L 18.785156 5.253906 C 18.679688 5.253906 18.59375 5.292969 18.519531 5.367188 C 18.449219 5.441406 18.414062 5.53125 18.414062 5.636719 L 18.414062 5.6875 C 18.320312 6.789062 18.023438 9.742188 18.183594 11.324219 C 18.253906 12 19.097656 13.363281 19.320312 13.710938 C 19.394531 13.839844 19.46875 13.953125 19.539062 14.082031 C 19.910156 14.671875 20.183594 15.304688 20.359375 15.984375 C 20.359375 16.003906 20.359375 16.023438 20.371094 16.042969 C 20.382812 16.0625 20.394531 16.144531 20.402344 16.199219 C 20.472656 16.648438 20.484375 17.101562 20.4375 17.558594 C 20.292969 19.226562 19.851562 22.953125 19.816406 26.679688 C 19.785156 29.820312 20.855469 30.058594 21.1875 30.058594 C 21.21875 30.0625 21.25 30.0625 21.285156 30.058594 C 21.316406 30.0625 21.347656 30.0625 21.382812 30.058594 C 21.710938 30.058594 22.78125 29.820312 22.75 26.679688 C 22.71875 22.953125 22.285156 19.226562 22.128906 17.558594 C 22.082031 17.101562 22.09375 16.648438 22.164062 16.199219 C 22.175781 16.144531 22.183594 16.09375 22.195312 16.042969 Z M 22.195312 16.042969 "/></g></g></svg>